<?xml version="1.0" encoding="UTF-8"?>
<svg id="Layer_2" data-name="Layer 2" xmlns="http://www.w3.org/2000/svg" width="272.9" height="56.41" xmlns:xlink="http://www.w3.org/1999/xlink" viewBox="0 0 272.9 56.41">
  <defs>
    <style>
      .cls-1 {
        fill: #fff;
      }

      .cls-2 {
        fill: url(#linear-gradient);
      }
    </style>
    <linearGradient id="linear-gradient" x1="24.07" y1="1686.71" x2="24.07" y2="1743.12" gradientTransform="translate(0 -1686.71)" gradientUnits="userSpaceOnUse">
      <stop offset="0" stop-color="#01adff"/>
      <stop offset="1" stop-color="#6a37ff"/>
    </linearGradient>
  </defs>
  <g id="Layer_1-2" data-name="Layer 1">
    <g>
      <path class="cls-2" d="m18.4,56.41c-2.9,0-5.9-.7-8.7-2.2C3.7,51.01,0,44.91,0,38.01v-20.6C0,10.51,3.9,4.51,10.1,1.61c6.3-2.9,13.4-1.8,18.6,2.7l12.9,11.1c4.5,4,6.9,9.7,6.5,15.7s-3.5,11.4-8.5,14.7l-10.9,7.4c-3.2,2.2-6.7,3.2-10.3,3.2ZM5.1,18.51v19.5c0,5,2.6,9.4,7.1,11.7,4.4,2.3,9.5,2.1,13.7-.7l10.9-7.4c3.7-2.5,5.9-6.4,6.2-10.9.3-4.4-1.5-8.6-4.8-11.6l-12.8-11c-3.7-3.2-8.7-3.9-13.1-1.9-.7.3-1.4.7-2.1,1.2,2.8-.3,5.7.6,8,2.5l15.9,12.9c2.1,1.7,3.3,4.3,3.2,7.1s-1.5,5.2-3.8,6.8l-10.5,7c-2.4,1.6-5.5,1.8-8.1.4-2.6-1.4-4.2-4-4.2-6.9v-19.5l18.8,15.1c.1.1.2.1.2.2l.8-.5c.9-.6,1.5-1.6,1.6-2.8.1-1.1-.4-2.2-1.3-2.9l-15.8-13c-1.9-1.5-4.3-1.8-6.4-.8-2.2,1.1-3.5,3.1-3.5,5.5Zm10.7,9.8v8.9c0,1,.5,1.9,1.5,2.4.9.5,2,.4,2.8-.1l5.3-3.6-9.6-7.6Z"/>
      <g>
        <path class="cls-1" d="m70,7.21c3.8,0,6.9,1.1,9.2,3.2,2.3,2.1,3.5,4.9,3.5,8.3s-1.2,6.2-3.5,8.3-5.4,3.2-9.2,3.2h-8.5V7.21h8.5Zm0,18.8c2.4,0,4.3-.7,5.8-2,1.4-1.3,2.2-3.1,2.2-5.3s-.7-4-2.2-5.3c-1.4-1.3-3.4-2-5.8-2h-3.8v14.6h3.8Z"/>
        <path class="cls-1" d="m90,6.01c.5.5.8,1.2.8,1.9,0,.8-.3,1.4-.8,1.9s-1.2.8-2,.8-1.5-.3-2-.8-.8-1.1-.8-1.9c0-.7.3-1.4.8-1.9s1.2-.8,2-.8c.9,0,1.5.3,2,.8Zm-4.2,24.2V13.01h4.5v17.2h-4.5Z"/>
        <path class="cls-1" d="m97.7,24.81c.2,1.6,1.4,2.3,3.5,2.3.8,0,1.5-.2,2-.5s.7-.7.7-1.2c0-.8-.6-1.3-1.9-1.5l-3.5-.7c-1.6-.3-2.8-.9-3.6-1.8s-1.3-1.9-1.3-3.1c0-1.7.6-3,1.9-4.1s3-1.6,5.1-1.6,3.7.5,5,1.4,2.2,2.2,2.5,3.7l-4.3.9c-.1-.7-.4-1.3-1-1.7s-1.3-.7-2.3-.7c-.8,0-1.4.2-1.8.5s-.6.7-.6,1.2c0,.7.5,1.2,1.5,1.4l4.1.9c1.5.3,2.6.9,3.4,1.8.8.9,1.2,1.9,1.2,3.1,0,1.9-.7,3.3-2,4.3s-3.2,1.5-5.5,1.5c-2,0-3.8-.4-5.2-1.3-1.4-.8-2.3-2.1-2.5-3.8l4.6-1Z"/>
        <path class="cls-1" d="m122.7,13.01l-.2,4.4h-1c-4.1,0-6.1,2.5-6.1,7.4v5.5h-4.5V13.11h4.5v3.1c1.6-2.2,3.6-3.4,6.2-3.4.5,0,.9.1,1.1.2Z"/>
        <path class="cls-1" d="m141.1,30.21h-4.5v-1.5c-1.4,1.4-3.2,2.1-5.4,2.1s-3.7-.7-5-2-1.9-3.1-1.9-5.2v-10.5h4.5v9.5c0,1.2.3,2.2.9,2.9s1.5,1.1,2.5,1.1c2.8,0,4.3-2,4.3-5.9v-7.6h4.5v17.1h.1Z"/>
        <path class="cls-1" d="m161.2,15.11c1.7,1.7,2.5,3.9,2.5,6.5s-.8,4.8-2.5,6.5-3.6,2.6-5.9,2.6-4.1-.6-5.7-1.9v7.2h-4.5V13.01h4.5v1.4c1.5-1.3,3.4-1.9,5.7-1.9,2.2,0,4.2.9,5.9,2.6Zm-3.3,10.3c.9-.9,1.4-2.2,1.4-3.7,0-1.6-.5-2.8-1.4-3.7s-2.1-1.4-3.5-1.4c-1.3,0-2.4.5-3.4,1.4-1,1-1.5,2.2-1.5,3.7s.5,2.7,1.5,3.7,2.1,1.4,3.4,1.4c1.5,0,2.6-.5,3.5-1.4Z"/>
        <path class="cls-1" d="m178.8,29.51c-1.6.8-3.1,1.3-4.5,1.3-2.1,0-3.8-.6-5-1.7s-1.8-2.8-1.8-5.1v-7.1h-3.7v-3.7h3.7v-5.2h4.5v5.2h5.6v3.7h-5.6v6.8c0,2,.8,3,2.5,3,.9,0,1.8-.3,2.9-.8l1.4,3.6Z"/>
        <path class="cls-1" d="m184.8,6.01c.5.5.8,1.2.8,1.9,0,.8-.3,1.4-.8,1.9s-1.2.8-2,.8-1.5-.3-2-.8-.8-1.1-.8-1.9c0-.7.3-1.4.8-1.9s1.2-.8,2-.8,1.5.3,2,.8Zm-4.2,24.2V13.01h4.5v17.2h-4.5Z"/>
        <path class="cls-1" d="m199.2,30.21h-4.8l-7.2-17.2h4.9l4.7,11.7,4.7-11.7h4.9l-7.2,17.2Z"/>
        <path class="cls-1" d="m223.9,22.91h-13.1c.2,1.2.7,2.2,1.5,2.9s1.7,1.1,2.8,1.1c1.9,0,3.4-.8,4.3-2.3l4.1.9c-.7,1.7-1.8,3.1-3.3,4-1.4.9-3.1,1.3-5.1,1.3-2.5,0-4.6-.8-6.3-2.5-1.7-1.7-2.5-3.9-2.5-6.5s.9-4.8,2.6-6.6c1.7-1.7,3.8-2.6,6.3-2.6,2.3,0,4.4.8,6,2.5s2.6,3.7,2.7,6.3v1.5Zm-11.3-5.6c-.8.6-1.3,1.3-1.6,2.3h8.3c-.3-1.1-.8-1.8-1.5-2.4-.7-.5-1.6-.8-2.5-.8-1,.1-1.9.4-2.7.9Z"/>
        <path class="cls-1" d="m238.4,13.01l-.2,4.4h-1c-4.1,0-6.1,2.5-6.1,7.4v5.5h-4.5V13.11h4.5v3.1c1.6-2.2,3.6-3.4,6.2-3.4.4,0,.8.1,1.1.2Z"/>
        <path class="cls-1" d="m243.4,24.81c.2,1.6,1.4,2.3,3.5,2.3.8,0,1.5-.2,2-.5s.7-.7.7-1.2c0-.8-.6-1.3-1.9-1.5l-3.5-.7c-1.6-.3-2.8-.9-3.6-1.8s-1.3-1.9-1.3-3.1c0-1.7.6-3,1.9-4.1s3-1.6,5.1-1.6,3.7.5,5,1.4,2.2,2.2,2.5,3.7l-4.3.9c-.1-.7-.4-1.3-1-1.7s-1.3-.7-2.3-.7c-.8,0-1.4.2-1.8.5s-.5.7-.5,1.2c0,.7.5,1.2,1.5,1.4l4.1.9c1.5.3,2.6.9,3.4,1.8.8.9,1.2,1.9,1.2,3.1,0,1.9-.7,3.3-2,4.3-1.4,1-3.2,1.5-5.5,1.5-2,0-3.8-.4-5.2-1.3s-2.3-2.1-2.5-3.8l4.5-1Z"/>
        <path class="cls-1" d="m272.9,22.91h-13.1c.2,1.2.7,2.2,1.5,2.9s1.7,1.1,2.8,1.1c1.9,0,3.4-.8,4.3-2.3l4.1.9c-.7,1.7-1.8,3.1-3.3,4-1.4.9-3.1,1.3-5.1,1.3-2.5,0-4.6-.8-6.3-2.5-1.7-1.7-2.5-3.9-2.5-6.5s.9-4.8,2.6-6.6c1.7-1.7,3.8-2.6,6.3-2.6,2.3,0,4.4.8,6,2.5s2.6,3.7,2.7,6.3v1.5Zm-11.4-5.6c-.8.6-1.3,1.3-1.6,2.3h8.3c-.3-1.1-.8-1.8-1.5-2.4-.7-.5-1.6-.8-2.5-.8-1,.1-1.8.4-2.7.9Z"/>
      </g>
      <g>
        <path class="cls-1" d="m72.4,47.31h-1.1v-7.5l-3.9,7.5h-.6l-3.9-7.5v7.5h-1.3v-9.9h1l4.3,8.2,4.3-8.2h1v9.9h.2Z"/>
        <path class="cls-1" d="m81.7,43.91h-6.3c.1,1.6,1.4,2.6,2.6,2.6,1,0,2-.4,2.5-1.6l1,.2c-.6,1.5-1.9,2.3-3.5,2.3-1.9,0-3.7-1.5-3.7-3.8s1.8-3.9,3.8-3.9,3.5,1.5,3.6,3.7v.5h0Zm-6.3-.9h5.1c-.2-1.4-1.2-2.2-2.4-2.2s-2.4.8-2.7,2.2Z"/>
        <path class="cls-1" d="m88,46.91c-.6.4-1.1.6-1.7.6-1.5,0-2.4-.9-2.4-2.5v-4.1h-1.6v-1h1.6v-2.3h1.1v2.3h2.6v1h-2.6v4c0,1,.5,1.5,1.4,1.5.4,0,.9-.2,1.2-.4l.4.9Z"/>
        <path class="cls-1" d="m96.2,47.31h-1.1v-1.2c-.7.9-1.7,1.4-2.9,1.4-1.9,0-3.7-1.5-3.7-3.8s1.7-3.8,3.7-3.8c1.2,0,2.3.5,2.9,1.4v-1.3h1.1v7.3Zm-1.1-3.6c0-1.8-1.4-2.9-2.7-2.9-1.5,0-2.7,1.1-2.7,2.9,0,1.7,1.2,2.8,2.7,2.8,1.3,0,2.7-1.1,2.7-2.8Z"/>
        <path class="cls-1" d="m102.2,47.31h-1.2l-3.2-7.3h1.2l2.6,6,2.6-6h1.2l-3.2,7.3Z"/>
        <path class="cls-1" d="m113.5,43.91h-6.3c.1,1.6,1.4,2.6,2.6,2.6,1,0,2-.4,2.5-1.6l1,.2c-.6,1.5-1.9,2.3-3.5,2.3-1.9,0-3.7-1.5-3.7-3.8s1.8-3.9,3.8-3.9,3.5,1.5,3.6,3.7v.5Zm-6.2-.9h5.1c-.2-1.4-1.2-2.2-2.4-2.2-1.3,0-2.5.8-2.7,2.2Z"/>
        <path class="cls-1" d="m120.1,40.01l-.1,1.1h-.4c-1.9,0-2.9,1.5-2.9,3.4v2.8h-1.1v-7.3h1.1v1.8c.6-1.1,1.6-1.9,2.9-1.9.1,0,.3,0,.5.1Z"/>
        <path class="cls-1" d="m122,45.11c.1,1,1,1.5,2.2,1.5,1.1,0,1.8-.5,1.8-1.2,0-.6-.5-.9-1.2-1.1l-1.7-.4c-1.2-.3-1.9-.9-1.9-1.9,0-1.3,1.1-2.2,2.8-2.2,1.6,0,2.7.8,3,2l-1.1.2c-.1-.8-.8-1.4-1.9-1.4-1,0-1.6.5-1.6,1.2,0,.6.4.8,1.1,1l1.8.4c1.1.2,1.9.8,1.9,1.9,0,1.4-1.2,2.3-3,2.3-1.7,0-3-.7-3.2-2.2l1-.1Z"/>
        <path class="cls-1" d="m136.1,43.61c0,2.2-1.7,3.8-3.9,3.8s-3.9-1.6-3.9-3.8,1.7-3.8,3.9-3.8,3.9,1.6,3.9,3.8Zm-1.1,0c0-1.7-1.3-2.8-2.8-2.8s-2.8,1.1-2.8,2.8,1.3,2.9,2.8,2.9,2.8-1.2,2.8-2.9Z"/>
      </g>
    </g>
  </g>
</svg>