<?xml version="1.0" encoding="UTF-8"?>
<svg id="Layer_2" data-name="Layer 2" xmlns="http://www.w3.org/2000/svg" width="2120" height="1114" viewBox="0 0 2120 1114">
  <defs>
    <style>
      .cls-1 {
        fill: #190b85;
      }
    </style>
  </defs>
  <circle class="cls-1" cx="1479.8" cy="934.61" r="1.22"/>
  <circle class="cls-1" cx="1472.44" cy="890.06" r="1.22"/>
  <circle class="cls-1" cx="1531.81" cy="778.94" r="1.22"/>
  <circle class="cls-1" cx="1325.08" cy="741.17" r="1.22"/>
  <circle class="cls-1" cx="1219.68" cy="768.17" r="1"/>
  <circle class="cls-1" cx="1155.37" cy="707.18" r=".75"/>
  <circle class="cls-1" cx="1055.44" cy="713.06" r=".75"/>
  <circle class="cls-1" cx="1021.99" cy="734.68" r="1.1"/>
  <circle class="cls-1" cx="940.57" cy="866.85" r="1.1"/>
  <circle class="cls-1" cx="896.91" cy="896.85" r="1.1"/>
  <circle class="cls-1" cx="699.65" cy="937.7" r="1.1"/>
  <circle class="cls-1" cx="611.58" cy="1094.39" r="1.1"/>
  <circle class="cls-1" cx="580.69" cy="775.61" r="1.1"/>
  <circle class="cls-1" cx="258.95" cy="246.89" r="1.1"/>
  <circle class="cls-1" cx="494.35" cy="1077.43" r="1.1"/>
  <circle class="cls-1" cx="934.6" cy="981.17" r="1.1"/>
  <circle class="cls-1" cx="1160.8" cy="804.2" r="1.22"/>
  <circle class="cls-1" cx="1130.94" cy="759.69" r="1.22"/>
  <circle class="cls-1" cx="1562.94" cy="817.55" r="1.22"/>
  <circle class="cls-1" cx="1764.42" cy="789.75" r="1.22"/>
  <circle class="cls-1" cx="1761.59" cy="657.83" r="1.22"/>
  <circle class="cls-1" cx="1999.87" cy="646.93" r="1.22"/>
  <circle class="cls-1" cx="2084.05" cy="722.86" r="1.22"/>
  <circle class="cls-1" cx="1649.98" cy="603.12" r=".99"/>
  <circle class="cls-1" cx="1635.71" cy="418.82" r=".99"/>
  <circle class="cls-1" cx="1571.38" cy="306.72" r=".99"/>
  <circle class="cls-1" cx="1985.2" cy="151.53" r=".99"/>
  <circle class="cls-1" cx="1652.76" cy="217.73" r=".84"/>
  <circle class="cls-1" cx="1602.5" cy="196.34" r=".6"/>
  <circle class="cls-1" cx="1436.58" cy="144.05" r=".95"/>
  <circle class="cls-1" cx="1212.92" cy="243.17" r=".95"/>
  <circle class="cls-1" cx="1081.43" cy="148.62" r=".74"/>
  <circle class="cls-1" cx="1105.93" cy="109.61" r=".74"/>
  <circle class="cls-1" cx="793.16" cy="87.07" r="1.08"/>
  <circle class="cls-1" cx="1074.09" cy="294.78" r=".95"/>
  <circle class="cls-1" cx="1144.17" cy="314.23" r="1.28"/>
  <circle class="cls-1" cx="1628.58" cy="350.74" r=".99"/>
  <circle class="cls-1" cx="1504.59" cy="399.36" r="1.56"/>
  <circle class="cls-1" cx="1813.72" cy="797.39" r="1.22"/>
  <circle class="cls-1" cx="1698.53" cy="958.61" r="1.43"/>
</svg>