<?xml version="1.0" encoding="UTF-8"?>
<svg id="Layer_2" data-name="Layer 2" xmlns="http://www.w3.org/2000/svg" width="2120" height="1114" viewBox="0 0 2120 1114">
  <defs>
    <style>
      .cls-1 {
        fill: #310399;
      }
    </style>
  </defs>
  <circle class="cls-1" cx="983.73" cy="625.67" r="1.25"/>
  <circle class="cls-1" cx="1079.67" cy="776.86" r="1.25"/>
  <circle class="cls-1" cx="1194.45" cy="743.36" r="1.25"/>
  <circle class="cls-1" cx="1029.12" cy="905.3" r="1.54"/>
  <circle class="cls-1" cx="1268.58" cy="934.85" r="1.11"/>
  <circle class="cls-1" cx="1585.86" cy="907.9" r="1.56"/>
  <circle class="cls-1" cx="1898.49" cy="804.75" r="1.82"/>
  <circle class="cls-1" cx="1623.51" cy="738.99" r="1.55"/>
  <circle class="cls-1" cx="1731.81" cy="720.77" r="1.55"/>
  <circle class="cls-1" cx="1842.62" cy="700.3" r="1.55"/>
  <circle class="cls-1" cx="1831.78" cy="640.43" r="2.11"/>
  <circle class="cls-1" cx="1982.7" cy="543.19" r="2.11"/>
  <circle class="cls-1" cx="1957.4" cy="452.06" r="1.06"/>
  <circle class="cls-1" cx="1813.03" cy="379.97" r="1.06"/>
  <circle class="cls-1" cx="1980.21" cy="443.86" r="1.06"/>
  <circle class="cls-1" cx="1409.2" cy="203.4" r="1.06"/>
  <circle class="cls-1" cx="576.09" cy="224.92" r="1.06"/>
  <circle class="cls-1" cx="1333.4" cy="599.65" r="1.06"/>
  <circle class="cls-1" cx="1479.77" cy="587.77" r="1.06"/>
  <circle class="cls-1" cx="1545.93" cy="612.27" r="1.39"/>
  <circle class="cls-1" cx="1188.77" cy="465.54" r="1.31"/>
  <circle class="cls-1" cx="470.58" cy="279.34" r="1.06"/>
  <circle class="cls-1" cx="1541.08" cy="79.73" r="1.06"/>
  <circle class="cls-1" cx="1662.03" cy="20.22" r="1.06"/>
  <circle class="cls-1" cx="1836.75" cy="99.31" r=".83"/>
  <circle class="cls-1" cx="2047.6" cy="69" r="1.09"/>
</svg>