<?xml version="1.0" encoding="utf-8"?>
<!-- Generator: Adobe Illustrator 26.2.1, SVG Export Plug-In . SVG Version: 6.00 Build 0)  -->
<svg version="1.1" id="Layer_1" xmlns="http://www.w3.org/2000/svg" xmlns:xlink="http://www.w3.org/1999/xlink" x="0px" y="0px" viewBox="0 0 513 342" style="enable-background:new 0 0 513 342;" xml:space="preserve">
  <style type="text/css">
    .st0{fill:#FFFFFF;}
    .st1{fill:#D80027;}
    .st2{fill:#2E52B2;}
  </style>
  <path class="st0" d="M0,0h513v342H0V0z"/>
  <path class="st1" d="M0,0h513v26.3H0V0z M0,52.6h513v26.3H0V52.6z M0,105.2h513v26.3H0V105.2z M0,157.8h513v26.3H0V157.8z M0,210.5 h513v26.3H0V210.5z M0,263.1h513v26.3H0V263.1z M0,315.7h513V342H0V315.7z"/>
  <path class="st2" d="M0,0h256.5v184.1H0V0z"/>
  <path class="st0" d="M47.8,138.9l-4-12.8l-4.4,12.8H26.2l10.7,7.7l-4,12.8l10.9-7.9l10.6,7.9l-4.1-12.8l10.9-7.7H47.8z M104.1,138.9
    l-4.1-12.8l-4.2,12.8H82.6l10.7,7.7l-4,12.8l10.7-7.9l10.8,7.9l-4-12.8l10.7-7.7H104.1z M160.6,138.9l-4.3-12.8l-4,12.8h-13.5
    l11,7.7l-4.2,12.8l10.7-7.9l11,7.9l-4.2-12.8l10.7-7.7H160.6z M216.8,138.9l-4-12.8l-4.2,12.8h-13.3l10.8,7.7l-4,12.8l10.7-7.9
    l10.8,7.9l-4.3-12.8l11-7.7H216.8z M100,75.3l-4.2,12.8H82.6L93.3,96l-4,12.6l10.7-7.8l10.8,7.8l-4-12.6l10.7-7.9h-13.4L100,75.3z
    M43.8,75.3l-4.4,12.8H26.2L36.9,96l-4,12.6l10.9-7.8l10.6,7.8L50.3,96l10.9-7.9H47.8L43.8,75.3z M156.3,75.3l-4,12.8h-13.5l11,7.9
    l-4.2,12.6l10.7-7.8l11,7.8L163.1,96l10.7-7.9h-13.2L156.3,75.3z M212.8,75.3l-4.2,12.8h-13.3l10.8,7.9l-4,12.6l10.7-7.8l10.8,7.8
    L219.3,96l11-7.9h-13.5L212.8,75.3z M43.8,24.7l-4.4,12.6H26.2l10.7,7.9l-4,12.7L43.8,50l10.6,7.9l-4.1-12.7l10.9-7.9H47.8
    L43.8,24.7z M100,24.7l-4.2,12.6H82.6l10.7,7.9l-4,12.7L100,50l10.8,7.9l-4-12.7l10.7-7.9h-13.4L100,24.7z M156.3,24.7l-4,12.6
    h-13.5l11,7.9l-4.2,12.7l10.7-7.9l11,7.9l-4.2-12.7l10.7-7.9h-13.2L156.3,24.7z M212.8,24.7l-4.2,12.6h-13.3l10.8,7.9l-4,12.7
    l10.7-7.9l10.8,7.9l-4.3-12.7l11-7.9h-13.5L212.8,24.7z"/>
</svg>